<svg viewBox="0 0 1024 1024" version="1.1" xmlns="http://www.w3.org/2000/svg" id="Layer_1">
  
  <defs>
    <style>
      .st0 {
        fill: #1E90FF;
      }

      .st1 {
        fill: #00BFFF;
      }

      .st2 {
        fill: #00A5FF;
      }

      .st3 {
        fill: #003399;
      }

      .st4 {
        fill: #00BFFF;
      }

      .st5 {
        fill: #1E90FF;
      }
    </style>
  </defs>
  
  
  <path d="M944.81,976.77c-27.35,27.16-64.21,43.52-102.62,47.13l-658.62.1c-82.17-5.87-146.19-68.98-151.61-151.62V150.42C43.8,40.43,117.09-.36,220.94.67c133.81,1.33,267.55-.3,401.66,2.03,77.59,1.35,156.71-6.8,234.26.14,71.78,6.42,132.4,74.43,135.18,145.73v720.1c-2.43,39.23-19.32,80.39-47.23,108.11ZM199.47,966.25v-293.93h57.67v-41.86c0-.2,2.59-2.79,2.79-2.79h64.18v-54.88c0-.2-2.59-2.79-2.79-2.79h-91.16c-.2,0-2.79-2.59-2.79-2.79V181.2h63.25c2.98,0,1.07-54.05,0-59.53h440.89v59.53h63.25v388.81h-96.74v57.67h66.97v338.58h84.64c8.66,0,37.95-14.01,45.53-19.62,21.41-15.87,37.54-42.52,39.1-70.61l.08-733.02c-4.42-42.64-38.1-76.42-79.07-84.64l-684.77-.05c-11.17,3.46-21.93,5.68-32.75,11.5-26.25,14.12-43.95,43.98-48.04,73.28l-.1,731.16c1.23,46.82,40.26,83.06,83.29,91.6,7.5,1.49,18.43-1.24,26.55.4ZM415.26,294.68h-65.11v106.04h60.46c.54,0,2.62,2.57,4.65,1.86v-107.9ZM671.99,294.68h-66.97l-1.76,105.01c2.73,4.77,7.15,1.05,11.91.94,18.28-.42,37.99-.85,55.87,1.98l.96-107.93ZM404.1,484.43c.9-10.36,3.17-20.91,1.86-31.63h-35.35c-.25,0-1.86,4.4-1.86,4.65v28.83c6.73,1.54,13.55-1.67,19.53-1.89,6.28-.22,7.17,1.45,15.82.03-.91,10.52-1.34,14.41-.67,25.43.29,4.74-4.44,10.3,3.47,11.78,4.05.76,22.48-.87,23.26,0,1.24,1.37-.31,24,4.9,25.92l154.01-.06c5.37-1.05,2.05-20.85,2.93-25.86h27.9v-32.56c0-.69-4.22-6.51-4.65-6.51h-28.83c-1.21,0,1.21,24.18,0,24.18h-148.82c-.63-3.74.86-23.34,0-24.19-.96-.96-23.61-.38-27.09-.01-2.88.31-4.77,1.61-6.41,1.88ZM619.9,452.8v31.63c0,1.77,31.59.06,35.35,1.86v-33.49c-9.61-3.13-6.84,5.59-8.37,5.6-2.2.02.51-5.26-1.94-5.72-6.98-1.31-17.3,2.28-25.04.12ZM333.41,724.41l-54.66-.11c-.74.14-3.01,6.16-3.01,6.62v235.33h57.67v-241.84ZM631.06,847.19h-209.29c-.2,0-2.79,2.59-2.79,2.79v113.48c0,.2,2.59,2.79,2.79,2.79h209.29v-119.06Z" class="st3"></path>
  <path d="M199.47,966.25c-8.12-1.64-19.04,1.09-26.55-.4-43.03-8.54-82.06-44.79-83.29-91.6l.1-731.16c4.09-29.3,21.79-59.16,48.04-73.28,10.82-5.82,21.58-8.04,32.75-11.5l684.77.05c40.98,8.21,74.65,42,79.07,84.64l-.08,733.02c-1.56,28.1-17.69,54.75-39.1,70.61-7.58,5.62-36.87,19.62-45.53,19.62h-84.64v-338.58h-66.97v-57.67h96.74V181.2h-63.25v-59.53h-440.89c1.07,5.48,2.98,59.53,0,59.53h-63.25v386.01c0,.2,2.59,2.79,2.79,2.79h91.16c.2,0,2.79,2.59,2.79,2.79v54.88h-64.18c-.2,0-2.79,2.59-2.79,2.79v41.86h-57.67v293.93Z" class="st2"></path>
  <path d="M631.06,847.19v119.06h-209.29c-.2,0-2.79-2.59-2.79-2.79v-113.48c0-.2,2.59-2.79,2.79-2.79h209.29Z" class="st2"></path>
  <path d="M333.41,724.41v241.84h-57.67v-235.33c0-.47,2.26-6.48,3.01-6.62l54.66.11Z" class="st1"></path>
  <path d="M404.1,484.43c1.64-.27,3.53-1.58,6.41-1.88,3.47-.37,26.13-.94,27.09.01.86.86-.64,20.45,0,24.19h148.82c1.21,0-1.21-24.18,0-24.18h28.83c.44,0,4.65,5.82,4.65,6.51v32.56h-27.9c-.88,5,2.44,24.8-2.93,25.86l-154.01.06c-5.21-1.92-3.67-24.55-4.9-25.92-.78-.86-19.2.76-23.26,0-7.91-1.47-3.18-7.04-3.47-11.78-.67-11.02-.24-14.91.67-25.43Z" class="st4"></path>
  <path d="M671.99,294.68l-.96,107.93c-17.88-2.83-37.58-2.4-55.87-1.98-4.76.11-9.18,3.84-11.91-.94l1.76-105.01h66.97Z" class="st2"></path>
  <path d="M415.26,294.68v107.9c-2.03.71-4.11-1.86-4.65-1.86h-60.46v-106.04h65.11Z" class="st5"></path>
  <path d="M404.1,484.43c-8.65,1.43-9.54-.25-15.82-.03s-12.8,3.43-19.53,1.89v-28.83c0-.25,1.61-4.65,1.86-4.65h35.35c1.31,10.71-.96,21.27-1.86,31.63Z" class="st0"></path>
  <path d="M619.9,452.8c7.74,2.16,18.06-1.43,25.04-.12,2.44.46-.26,5.74,1.94,5.72,1.53-.01-1.24-8.73,8.37-5.6v33.49c-3.76-1.8-35.35-.09-35.35-1.86v-31.63Z" class="st0"></path>

  
  
  <ellipse transform="rotate(-35 635 625)" fill="#003399" ry="68" rx="55" cy="625" cx="635"></ellipse>
  
  
  
  <rect transform="rotate(-45 620 580)" fill="#003399" rx="12" height="55" width="28" y="560" x="610"></rect>
  
  <rect transform="rotate(-25 600 590)" fill="#003399" rx="10" height="48" width="25" y="575" x="595"></rect>
  
  <rect transform="rotate(-10 585 610)" fill="#003399" rx="10" height="45" width="24" y="595" x="580"></rect>

  
  
  <ellipse stroke-width="18" stroke="#C25E1A" fill="#D2691E" ry="105" rx="115" cy="615" cx="735"></ellipse>
  
  
  <ellipse opacity="0.75" fill="#E07A2F" ry="62" rx="68" cy="575" cx="695"></ellipse>
  <ellipse opacity="0.65" fill="#C25E1A" ry="48" rx="55" cy="655" cx="775"></ellipse>
  
  
  <ellipse transform="rotate(-40 655 555)" fill="#4A2C1A" ry="22" rx="16" cy="555" cx="655"></ellipse>
  <ellipse transform="rotate(35 700 535)" fill="#4A2C1A" ry="19" rx="14" cy="535" cx="700"></ellipse>
  <ellipse transform="rotate(-30 760 555)" fill="#4A2C1A" ry="14" rx="18" cy="555" cx="760"></ellipse>
  <ellipse transform="rotate(45 810 590)" fill="#4A2C1A" ry="21" rx="15" cy="590" cx="810"></ellipse>
  <ellipse transform="rotate(-55 670 645)" fill="#4A2C1A" ry="18" rx="17" cy="645" cx="670"></ellipse>
  <ellipse transform="rotate(25 735 675)" fill="#4A2C1A" ry="20" rx="13" cy="675" cx="735"></ellipse>
  <ellipse transform="rotate(60 790 630)" fill="#4A2C1A" ry="15" rx="16" cy="630" cx="790"></ellipse>
  <ellipse transform="rotate(-20 720 580)" fill="#4A2C1A" ry="17" rx="12" cy="580" cx="720"></ellipse>
  <ellipse transform="rotate(50 780 575)" fill="#4A2C1A" ry="16" rx="14" cy="575" cx="780"></ellipse>

  
  <ellipse opacity="0.18" fill="#000000" ry="22" rx="92" cy="715" cx="745"></ellipse>

</svg>
